<svg width="40" height="40" viewBox="0 0 40 40" fill="none" xmlns="http://www.w3.org/2000/svg">
  <!-- 네 잎 클로버 로고 -->
  <g>
    <!-- 잎 1 (위쪽) -->
    <path d="M20 8C20 8 16 12 16 20C16 20 20 16 20 8Z" fill="#22c55e" stroke="#16a34a" stroke-width="0.5"/>
    <!-- 잎 2 (오른쪽) -->
    <path d="M32 20C32 20 28 16 20 16C20 16 24 20 32 20Z" fill="#22c55e" stroke="#16a34a" stroke-width="0.5"/>
    <!-- 잎 3 (아래쪽) -->
    <path d="M20 32C20 32 24 28 24 20C24 20 20 24 20 32Z" fill="#22c55e" stroke="#16a34a" stroke-width="0.5"/>
    <!-- 잎 4 (왼쪽) -->
    <path d="M8 20C8 20 12 24 20 24C20 24 16 20 8 20Z" fill="#22c55e" stroke="#16a34a" stroke-width="0.5"/>
    <!-- 중앙 십자 -->
    <circle cx="20" cy="20" r="3" fill="white"/>
    <circle cx="20" cy="20" r="1.5" fill="#22c55e"/>
  </g>
</svg>
