<svg width="40" height="40" viewBox="0 0 40 40" fill="none" xmlns="http://www.w3.org/2000/svg">
  <!-- 현대적인 네 잎 클로버 로고 -->
  <defs>
    <!-- 그라데이션 정의 -->
    <radialGradient id="leafGradient" cx="0.3" cy="0.3" r="0.8">
      <stop offset="0%" stop-color="#4ade80"/>
      <stop offset="70%" stop-color="#22c55e"/>
      <stop offset="100%" stop-color="#16a34a"/>
    </radialGradient>
    <radialGradient id="centerGradient" cx="0.5" cy="0.5" r="0.5">
      <stop offset="0%" stop-color="#ffffff"/>
      <stop offset="100%" stop-color="#f0fdf4"/>
    </radialGradient>
  </defs>
  
  <g>
    <!-- 잎 1 (위쪽) - 더 부드러운 곡선 -->
    <path d="M20 6C20 6 14 10 14 20C14 20 18 18 20 6Z" fill="url(#leafGradient)" stroke="#16a34a" stroke-width="0.3"/>
    <!-- 잎 2 (오른쪽) -->
    <path d="M34 20C34 20 30 14 20 14C20 14 26 18 34 20Z" fill="url(#leafGradient)" stroke="#16a34a" stroke-width="0.3"/>
    <!-- 잎 3 (아래쪽) -->
    <path d="M20 34C20 34 26 30 26 20C26 20 22 22 20 34Z" fill="url(#leafGradient)" stroke="#16a34a" stroke-width="0.3"/>
    <!-- 잎 4 (왼쪽) -->
    <path d="M6 20C6 20 10 26 20 26C20 26 14 22 6 20Z" fill="url(#leafGradient)" stroke="#16a34a" stroke-width="0.3"/>
    
    <!-- 중앙 원형 - 더 부드러운 디자인 -->
    <circle cx="20" cy="20" r="4" fill="url(#centerGradient)" stroke="#22c55e" stroke-width="0.5"/>
    <circle cx="20" cy="20" r="2" fill="#22c55e"/>
    
    <!-- 작은 하이라이트 -->
    <circle cx="18" cy="18" r="0.8" fill="#ffffff" opacity="0.6"/>
  </g>
</svg>
